<?xml version="1.0" encoding="UTF-8"?>
<!DOCTYPE svg PUBLIC "-//W3C//DTD SVG 1.1//EN" "http://www.w3.org/Graphics/SVG/1.1/DTD/svg11.dtd">
<!-- Creator: CorelDRAW -->
<svg xmlns="http://www.w3.org/2000/svg" xml:space="preserve" width="71.9666mm" height="71.9666mm" style="shape-rendering:geometricPrecision; text-rendering:geometricPrecision; image-rendering:optimizeQuality; fill-rule:evenodd; clip-rule:evenodd"
viewBox="0 0 71.9666 71.9666"
 xmlns:xlink="http://www.w3.org/1999/xlink">
 <defs>
  <style type="text/css">
   <![CDATA[
    .fil1 {fill:white;fill-rule:nonzero}
    .fil0 {fill:url(#id0)}
   ]]>
  </style>
  <linearGradient id="id0" gradientUnits="userSpaceOnUse" x1="35.9832" y1="71.9667" x2="35.9832" y2="-0.0001">
   <stop offset="0" style="stop-color:#262261"/>
   <stop offset="0.0117647" style="stop-color:#262261"/>
   <stop offset="0.0196078" style="stop-color:#262261"/>
   <stop offset="0.0313725" style="stop-color:#262261"/>
   <stop offset="0.0392157" style="stop-color:#262261"/>
   <stop offset="0.0509804" style="stop-color:#262261"/>
   <stop offset="0.0588235" style="stop-color:#292363"/>
   <stop offset="0.0705882" style="stop-color:#2C2365"/>
   <stop offset="0.0784314" style="stop-color:#2F2468"/>
   <stop offset="0.0901961" style="stop-color:#32246A"/>
   <stop offset="0.101961" style="stop-color:#35256C"/>
   <stop offset="0.109804" style="stop-color:#37256E"/>
   <stop offset="0.121569" style="stop-color:#3A2670"/>
   <stop offset="0.129412" style="stop-color:#3D2672"/>
   <stop offset="0.141176" style="stop-color:#3F2774"/>
   <stop offset="0.14902" style="stop-color:#422776"/>
   <stop offset="0.160784" style="stop-color:#442777"/>
   <stop offset="0.168627" style="stop-color:#462879"/>
   <stop offset="0.180392" style="stop-color:#48287A"/>
   <stop offset="0.188235" style="stop-color:#4A287C"/>
   <stop offset="0.2" style="stop-color:#4C297D"/>
   <stop offset="0.211765" style="stop-color:#4E297F"/>
   <stop offset="0.219608" style="stop-color:#502980"/>
   <stop offset="0.231373" style="stop-color:#512981"/>
   <stop offset="0.239216" style="stop-color:#532A83"/>
   <stop offset="0.25098" style="stop-color:#552A84"/>
   <stop offset="0.258824" style="stop-color:#562A85"/>
   <stop offset="0.270588" style="stop-color:#582A86"/>
   <stop offset="0.278431" style="stop-color:#592B87"/>
   <stop offset="0.290196" style="stop-color:#5A2B88"/>
   <stop offset="0.301961" style="stop-color:#5B2B89"/>
   <stop offset="0.309804" style="stop-color:#5C2B8A"/>
   <stop offset="0.321569" style="stop-color:#5E2B8A"/>
   <stop offset="0.329412" style="stop-color:#5F2C8B"/>
   <stop offset="0.341176" style="stop-color:#602C8C"/>
   <stop offset="0.34902" style="stop-color:#612C8D"/>
   <stop offset="0.360784" style="stop-color:#612C8D"/>
   <stop offset="0.368627" style="stop-color:#622C8E"/>
   <stop offset="0.380392" style="stop-color:#622C8E"/>
   <stop offset="0.388235" style="stop-color:#632C8E"/>
   <stop offset="0.4" style="stop-color:#632D8F"/>
   <stop offset="0.411765" style="stop-color:#632D8F"/>
   <stop offset="0.419608" style="stop-color:#642D8F"/>
   <stop offset="0.431373" style="stop-color:#642D8F"/>
   <stop offset="0.439216" style="stop-color:#652D90"/>
   <stop offset="0.45098" style="stop-color:#652D90"/>
   <stop offset="0.458824" style="stop-color:#672D90"/>
   <stop offset="0.470588" style="stop-color:#682D90"/>
   <stop offset="0.478431" style="stop-color:#6A2C90"/>
   <stop offset="0.490196" style="stop-color:#6B2C90"/>
   <stop offset="0.501961" style="stop-color:#6D2C90"/>
   <stop offset="0.509804" style="stop-color:#6E2C90"/>
   <stop offset="0.521569" style="stop-color:#702C90"/>
   <stop offset="0.529412" style="stop-color:#712B90"/>
   <stop offset="0.541176" style="stop-color:#722B90"/>
   <stop offset="0.54902" style="stop-color:#732B90"/>
   <stop offset="0.560784" style="stop-color:#752B90"/>
   <stop offset="0.568627" style="stop-color:#762B90"/>
   <stop offset="0.580392" style="stop-color:#772A8F"/>
   <stop offset="0.588235" style="stop-color:#782A8F"/>
   <stop offset="0.6" style="stop-color:#792A8F"/>
   <stop offset="0.611765" style="stop-color:#7A2A8F"/>
   <stop offset="0.619608" style="stop-color:#7C2A8F"/>
   <stop offset="0.631373" style="stop-color:#7D2A8F"/>
   <stop offset="0.639216" style="stop-color:#7E298F"/>
   <stop offset="0.65098" style="stop-color:#7F298F"/>
   <stop offset="0.658824" style="stop-color:#80298F"/>
   <stop offset="0.670588" style="stop-color:#81298F"/>
   <stop offset="0.678431" style="stop-color:#82298F"/>
   <stop offset="0.690196" style="stop-color:#82298F"/>
   <stop offset="0.701961" style="stop-color:#83298F"/>
   <stop offset="0.709804" style="stop-color:#84298F"/>
   <stop offset="0.721569" style="stop-color:#85298F"/>
   <stop offset="0.729412" style="stop-color:#85298F"/>
   <stop offset="0.741176" style="stop-color:#86288E"/>
   <stop offset="0.74902" style="stop-color:#87288E"/>
   <stop offset="0.760784" style="stop-color:#87288E"/>
   <stop offset="0.768627" style="stop-color:#88288E"/>
   <stop offset="0.780392" style="stop-color:#89288E"/>
   <stop offset="0.788235" style="stop-color:#89288E"/>
   <stop offset="0.8" style="stop-color:#8A288E"/>
   <stop offset="0.811765" style="stop-color:#8B288E"/>
   <stop offset="0.819608" style="stop-color:#8B288E"/>
   <stop offset="0.831373" style="stop-color:#8C288E"/>
   <stop offset="0.839216" style="stop-color:#8C288E"/>
   <stop offset="0.85098" style="stop-color:#8D288E"/>
   <stop offset="0.858824" style="stop-color:#8D288E"/>
   <stop offset="0.870588" style="stop-color:#8D288E"/>
   <stop offset="0.878431" style="stop-color:#8D288E"/>
   <stop offset="0.890196" style="stop-color:#8E288E"/>
   <stop offset="0.901961" style="stop-color:#8E288E"/>
   <stop offset="0.909804" style="stop-color:#8E278E"/>
   <stop offset="0.921569" style="stop-color:#8E278E"/>
   <stop offset="0.929412" style="stop-color:#8E278E"/>
   <stop offset="0.941176" style="stop-color:#8F278E"/>
   <stop offset="0.94902" style="stop-color:#8F278E"/>
   <stop offset="0.960784" style="stop-color:#8F278E"/>
   <stop offset="0.968627" style="stop-color:#8F278E"/>
   <stop offset="0.980392" style="stop-color:#90278E"/>
   <stop offset="0.988235" style="stop-color:#90278E"/>
   <stop offset="1" style="stop-color:#90278E"/>
  </linearGradient>
 </defs>
 <g id="Layer_x0020_1">
  <metadata id="CorelCorpID_0Corel-Layer"/>
  <path class="fil0" d="M71.9665 35.9833c0,-19.8731 -16.1102,-35.9833 -35.9833,-35.9833 -19.8731,0 -35.9833,16.1102 -35.9833,35.9833 0,19.8731 16.1102,35.9833 35.9833,35.9833 19.8731,0 35.9833,-16.1102 35.9833,-35.9833z"/>
  <g id="_251223080">
   <path id="_251227392" class="fil1" d="M25.4005 15.689c-0.3273,0 -0.5927,-0.2654 -0.5927,-0.5927 0,-0.3273 0.2654,-0.5927 0.5927,-0.5927l28.6848 0c0.3273,0 0.5927,0.2654 0.5927,0.5927l0 41.774c0,0.3273 -0.2654,0.5927 -0.5927,0.5927l-28.6848 0c-0.3273,0 -0.5927,-0.2654 -0.5927,-0.5927 0,-0.3273 0.2654,-0.5927 0.5927,-0.5927l28.0921 0 0 -40.5886 -28.0921 0z"/>
   <path id="_251227672" class="fil1" d="M18.8916 44.7743c0,0.3273 -0.2654,0.5927 -0.5927,0.5927 -0.3273,0 -0.5927,-0.2654 -0.5927,-0.5927l0 -7.0596c0,-0.3273 0.2654,-0.5927 0.5927,-0.5927 0.3273,0 0.5927,0.2654 0.5927,0.5927l0 7.0596zm0 -10.5225c0,0.3273 -0.2654,0.5927 -0.5927,0.5927 -0.3273,0 -0.5927,-0.2654 -0.5927,-0.5927l0 -7.0596c0,-0.3273 0.2654,-0.5927 0.5927,-0.5927 0.3273,0 0.5927,0.2654 0.5927,0.5927l0 7.0596zm0 -10.5223c0,0.3273 -0.2654,0.5927 -0.5927,0.5927 -0.3273,0 -0.5927,-0.2654 -0.5927,-0.5927l0 -8.6332c0,-0.3273 0.2654,-0.5927 0.5927,-0.5927l7.1016 0c0.3273,0 0.5927,0.2654 0.5927,0.5927l0 41.774c0,0.3273 -0.2654,0.5927 -0.5927,0.5927l-7.1016 0c-0.3273,0 -0.5927,-0.2654 -0.5927,-0.5927l0 -8.6333c0,-0.3273 0.2654,-0.5927 0.5927,-0.5927 0.3273,0 0.5927,0.2654 0.5927,0.5927l0 8.0406 5.9162 0 0 -40.5886 -5.9162 0 0 8.0405z"/>
   <path id="_251228288" class="fil1" d="M14.9013 23.1368l6.823 0c0.3273,0 0.5927,0.2654 0.5927,0.5927l0 3.4627c0,0.3273 -0.2654,0.5927 -0.5927,0.5927l-6.823 0c-0.3273,0 -0.5927,-0.2654 -0.5927,-0.5927l0 -3.4627c0,-0.3273 0.2654,-0.5927 0.5927,-0.5927zm6.2303 1.1854l-5.6376 0 0 2.2773 5.6376 0 0 -2.2773z"/>
   <path id="_251227224" class="fil1" d="M14.9013 33.6592l6.823 0c0.3273,0 0.5927,0.2654 0.5927,0.5927l0 3.4627c0,0.3273 -0.2654,0.5927 -0.5927,0.5927l-6.823 0c-0.3273,0 -0.5927,-0.2654 -0.5927,-0.5927l0 -3.4627c0,-0.3273 0.2654,-0.5927 0.5927,-0.5927zm6.2303 1.1854l-5.6376 0 0 2.2773 5.6376 0 0 -2.2773z"/>
   <path id="_251226888" class="fil1" d="M14.9013 44.1815l6.823 0c0.3273,0 0.5927,0.2654 0.5927,0.5927l0 3.4628c0,0.3273 -0.2654,0.5927 -0.5927,0.5927l-6.823 0c-0.3273,0 -0.5927,-0.2654 -0.5927,-0.5927l0 -3.4628c0,-0.3273 0.2654,-0.5927 0.5927,-0.5927zm6.2303 1.1854l-5.6376 0 0 2.2774 5.6376 0 0 -2.2774z"/>
   <path id="_251224984" class="fil1" d="M54.0853 21.0698c-0.3273,0 -0.5927,-0.2654 -0.5927,-0.5927 0,-0.3273 0.2654,-0.5927 0.5927,-0.5927l2.98 0c0.3273,0 0.5927,0.2654 0.5927,0.5927l0 13.2855c0,0.3273 -0.2654,0.5927 -0.5927,0.5927l-2.98 0c-0.3273,0 -0.5927,-0.2654 -0.5927,-0.5927 0,-0.3273 0.2654,-0.5927 0.5927,-0.5927l2.3873 0 0 -12.1001 -2.3873 0z"/>
   <path id="_251226384" class="fil1" d="M54.0853 38.7965c-0.3273,0 -0.5927,-0.2654 -0.5927,-0.5927 0,-0.3273 0.2654,-0.5927 0.5927,-0.5927l2.98 0c0.3273,0 0.5927,0.2654 0.5927,0.5927l0 13.2856c0,0.3273 -0.2654,0.5927 -0.5927,0.5927l-2.98 0c-0.3273,0 -0.5927,-0.2654 -0.5927,-0.5927 0,-0.3273 0.2654,-0.5927 0.5927,-0.5927l2.3873 0 0 -12.1002 -2.3873 0z"/>
   <path id="_251225208" class="fil1" d="M43.9379 42.1096c-0.3273,0 -0.5927,-0.2654 -0.5927,-0.5927 0,-0.3273 0.2654,-0.5927 0.5927,-0.5927l1.1878 0c1.3869,0 2.6475,0.567 3.5609,1.4804 0.9134,0.9134 1.4805,2.1739 1.4805,3.5608l0 5.1439c0,0.3273 -0.2654,0.5927 -0.5927,0.5927l-19.663 0c-0.3273,0 -0.5927,-0.2654 -0.5927,-0.5927l0 -5.1439c0,-1.3869 0.5671,-2.6474 1.4805,-3.5608 0.9134,-0.9134 2.1739,-1.4804 3.5608,-1.4804l1.1877 0c0.3273,0 0.5927,0.2654 0.5927,0.5927 0,0.3273 -0.2654,0.5927 -0.5927,0.5927l-1.1877 0c-1.0598,0 -2.0237,0.4339 -2.7228,1.133 -0.6991,0.6991 -1.1331,1.663 -1.1331,2.7228l0 4.5512 18.4776 0 0 -4.5512c0,-1.0598 -0.434,-2.0237 -1.1331,-2.7228 -0.6991,-0.6991 -1.6631,-1.133 -2.7229,-1.133l-1.1878 0z"/>
   <path id="_251226272" class="fil1" d="M44.56 32.4519c-0.0895,-0.3145 0.0929,-0.6421 0.4074,-0.7316 0.3145,-0.0895 0.6421,0.0929 0.7316,0.4074 0.0753,0.2642 0.1338,0.5405 0.1737,0.827 0.0393,0.2825 0.0597,0.5647 0.0597,0.8444 0,1.6794 -0.6809,3.2001 -1.7815,4.3007 -1.1006,1.1006 -2.6213,1.7815 -4.3007,1.7815 -1.675,0 -3.199,-0.68 -4.3024,-1.7834 -1.0979,-1.0979 -1.7797,-2.6151 -1.7797,-4.2988 0,-0.2266 0.0135,-0.4569 0.0398,-0.6892 0.0261,-0.2306 0.0654,-0.458 0.1167,-0.681 0.0729,-0.3183 0.3901,-0.5173 0.7084,-0.4444 0.3183,0.0729 0.5173,0.3901 0.4444,0.7084 -0.041,0.178 -0.0725,0.3605 -0.0935,0.5466 -0.02,0.1773 -0.0304,0.3642 -0.0304,0.5596 0,1.3558 0.5487,2.5772 1.4323,3.4608 0.8884,0.8884 2.1157,1.436 3.4644,1.436 1.3523,0 2.5767,-0.5481 3.4627,-1.4341 0.886,-0.886 1.4341,-2.1104 1.4341,-3.4627 0,-0.2384 -0.0157,-0.4662 -0.0457,-0.6824 -0.031,-0.2225 -0.0786,-0.4448 -0.1413,-0.6648z"/>
   <path id="_251226104" class="fil1" d="M45.9782 26.9434c0.0007,0.0124 0.2444,4.3542 -0.3091,5.5874 -0.1329,0.2979 -0.4823,0.4315 -0.7802,0.2986 -0.0936,-0.0418 -0.171,-0.1049 -0.229,-0.1811 -2.045,-2.6469 -2.3557,-2.4243 -2.8784,-2.0494 -0.6606,0.4737 -1.5065,1.0803 -3.391,0.5795 -0.4059,-0.1078 -1.0001,0.0579 -1.5914,0.3439 -0.772,0.3734 -1.4908,0.9321 -1.8212,1.3859 -0.1918,0.2633 -0.5609,0.3214 -0.8242,0.1296 -0.0633,-0.0461 -0.1147,-0.1025 -0.1537,-0.1653l-0.0014 0.0009c-0.0048,-0.0078 -1.6819,-2.6917 -1.6356,-6.1978 0.0044,-0.3312 1.493,-1.1713 3.4228,-1.6738 1.1611,-0.3023 2.5043,-0.5627 3.7501,-0.6321 1.5071,-0.0839 2.8728,0.1152 3.9467,0.4871 1.2439,0.4309 2.1287,1.1146 2.4516,1.8944 0.0259,0.063 0.0401,0.1279 0.0436,0.1922l0.0004 0zm-1.1783 3.9965c0.1152,-1.3553 0.0277,-3.3351 0.0034,-3.8208 -0.229,-0.4355 -0.8374,-0.8459 -1.7049,-1.1465 -0.9374,-0.3246 -2.1459,-0.4975 -3.4977,-0.4223 -1.1614,0.0647 -2.4235,0.31 -3.5185,0.5951 -1.4365,0.374 -2.538,0.4946 -2.5386,0.544 -0.0282,2.1426 0.6525,3.9344 1.0941,4.8667 0.4567,-0.407 1.0437,-0.8068 1.6474,-1.0988 0.819,-0.3961 1.6997,-0.6103 2.4064,-0.4225 1.3453,0.3575 1.9377,-0.0673 2.4002,-0.3989 0.9881,-0.7085 1.6175,-1.1591 3.7082,1.304z"/>
   <path id="_251224480" class="fil1" d="M35.5477 42.1095c-0.3273,0 -0.5927,-0.2654 -0.5927,-0.5927 0,-0.2176 0.1175,-0.4079 0.2923,-0.511 0.1842,-0.1299 1.3009,-0.9659 1.6685,-2.3966 0.0805,-0.3157 0.4019,-0.5065 0.7176,-0.426 0.3157,0.0805 0.5065,0.4019 0.426,0.7176 -0.4658,1.8127 -1.8715,2.8864 -2.1404,3.078 -0.1016,0.0817 -0.2306,0.1307 -0.3712,0.1307l-0.0001 0z"/>
   <path id="_251223528" class="fil1" d="M35.3023 42.0539c-0.2966,-0.1355 -0.4272,-0.4859 -0.2917,-0.7825 0.1355,-0.2966 0.4859,-0.4272 0.7825,-0.2917l3.9497 1.8027 3.9498 -1.8027c0.2966,-0.1355 0.647,-0.0049 0.7825,0.2917 0.1355,0.2966 0.0049,0.647 -0.2917,0.7825l-4.1952 1.9147c-0.1504,0.0686 -0.3286,0.0741 -0.4908,0l-4.1951 -1.9147z"/>
   <path id="_251223808" class="fil1" d="M44.2579 41.0177c0.1641,0.1054 0.2729,0.2896 0.2729,0.4991 0,0.3273 -0.2654,0.5927 -0.5927,0.5927l-0.0002 0c-0.1269,0 -0.2445,-0.04 -0.3409,-0.1079 -0.149,-0.1023 -1.6284,-1.1548 -2.1448,-3.0016 -0.0869,-0.3145 0.0976,-0.64 0.4121,-0.7269 0.3145,-0.0869 0.64,0.0976 0.7269,0.4121 0.4023,1.4387 1.5558,2.2565 1.6667,2.3325z"/>
   <path id="_251223864" class="fil1" d="M33.7771 48.2912c0,-0.3273 0.2654,-0.5927 0.5927,-0.5927 0.3273,0 0.5927,0.2654 0.5927,0.5927l0 2.8182c0,0.3273 -0.2654,0.5927 -0.5927,0.5927 -0.3273,0 -0.5927,-0.2654 -0.5927,-0.5927l0 -2.8182z"/>
   <path id="_251223360" class="fil1" d="M44.5233 48.2912c0,-0.3273 0.2654,-0.5927 0.5927,-0.5927 0.3273,0 0.5927,0.2654 0.5927,0.5927l0 2.8182c0,0.3273 -0.2654,0.5927 -0.5927,0.5927 -0.3273,0 -0.5927,-0.2654 -0.5927,-0.5927l0 -2.8182z"/>
   <path id="_251223304" class="fil1" d="M33.5465 21.4503c-0.3273,0 -0.5927,-0.2654 -0.5927,-0.5927 0,-0.3273 0.2654,-0.5927 0.5927,-0.5927l12.3928 0c0.3273,0 0.5927,0.2654 0.5927,0.5927 0,0.3273 -0.2654,0.5927 -0.5927,0.5927l-12.3928 0z"/>
  </g>
 </g>
</svg>
